<svg width="45" height="45" viewBox="0 0 45 45" fill="none" xmlns="http://www.w3.org/2000/svg">
<path d="M3.75 22.5C3.75 12.1444 12.1444 3.75 22.5 3.75C32.8556 3.75 41.25 12.1444 41.25 22.5C41.25 32.8556 32.8556 41.25 22.5 41.25C12.1444 41.25 3.75 32.8556 3.75 22.5Z" fill="#0E5BFF"/>
<path fill-rule="evenodd" clip-rule="evenodd" d="M22.4994 35.7806C26.0216 35.7806 29.3996 34.3814 31.8902 31.8908C34.3808 29.4002 35.78 26.0222 35.78 22.5C35.78 18.9777 34.3808 15.5998 31.8902 13.1092C29.3996 10.6186 26.0216 9.21936 22.4994 9.21936C18.9771 9.21936 15.5992 10.6186 13.1086 13.1092C10.618 15.5998 9.21875 18.9777 9.21875 22.5C9.21875 26.0222 10.618 29.4002 13.1086 31.8908C15.5992 34.3814 18.9771 35.7806 22.4994 35.7806ZM20.9375 18.5944C19.6437 18.5944 18.5937 19.6444 18.5937 20.9381V24.0619C18.5937 25.3556 19.6437 26.4056 20.9375 26.4056H24.0612C25.355 26.4056 26.405 25.3556 26.405 24.0619V20.9381C26.405 19.6444 25.355 18.5944 24.0612 18.5944H20.9375Z" fill="white"/>
</svg>
