<svg width="37" height="27" viewBox="0 0 37 27" fill="none" xmlns="http://www.w3.org/2000/svg">
<path d="M31.3384 2.25185C28.9126 1.18606 26.3463 0.428767 23.7073 0C23.3786 0.558045 22.9945 1.30862 22.7297 1.90574C19.8844 1.50395 17.0652 1.50395 14.2722 1.90574C14.0075 1.30875 13.6148 0.558045 13.2831 0C10.6415 0.428954 8.07298 1.18817 5.64605 2.25742C0.816617 9.1104 -0.492606 15.793 0.161933 22.381C3.36513 24.6271 6.46935 25.9916 9.52127 26.8845C10.2798 25.9051 10.9503 24.8682 11.5258 23.7844C10.43 23.3927 9.37364 22.9099 8.36925 22.3419C8.63354 22.1579 8.89163 21.9662 9.14314 21.767C15.2293 24.4402 21.8424 24.4402 27.856 21.767C28.1086 21.9649 28.3666 22.1566 28.6298 22.3419C27.6238 22.9115 26.5655 23.3952 25.4675 23.7873C26.0463 24.8754 26.7156 25.9134 27.472 26.8873C30.5268 25.9945 33.6339 24.63 36.8371 22.381C37.6052 14.7439 35.5251 8.12266 31.3384 2.25185ZM12.355 18.3295C10.5279 18.3295 9.02957 16.7278 9.02957 14.7774C9.02957 12.827 10.496 11.2226 12.355 11.2226C14.214 11.2226 15.7124 12.8242 15.6804 14.7774C15.6833 16.7278 14.2142 18.3295 12.355 18.3295ZM24.644 18.3295C22.8169 18.3295 21.3187 16.7278 21.3187 14.7774C21.3187 12.827 22.785 11.2226 24.644 11.2226C26.5032 11.2226 28.0014 12.8242 27.9695 14.7774C27.9695 16.7278 26.5032 18.3295 24.644 18.3295Z" fill="#5865F2"/>
</svg>
