<svg width="74" height="30" viewBox="0 0 74 30" fill="none" xmlns="http://www.w3.org/2000/svg">
<rect x="0.5" y="0.5" width="73" height="29" rx="14.5" stroke="white"/>
<path d="M33.2269 15.2871L28.1009 13.3984L26.2122 8.27246C26.116 8.01166 25.9422 7.78661 25.7141 7.62766C25.4861 7.46871 25.2148 7.38349 24.9368 7.38349C24.6588 7.38349 24.3876 7.46871 24.1595 7.62766C23.9315 7.78661 23.7576 8.01166 23.6614 8.27246L21.7728 13.3984L16.6468 15.2871C16.386 15.3833 16.1609 15.5571 16.002 15.7852C15.843 16.0132 15.7578 16.2845 15.7578 16.5625C15.7578 16.8405 15.843 17.1118 16.002 17.3398C16.1609 17.5679 16.386 17.7417 16.6468 17.8379L21.7728 19.7266L23.6614 24.8525C23.7576 25.1133 23.9315 25.3384 24.1595 25.4973C24.3876 25.6563 24.6588 25.7415 24.9368 25.7415C25.2148 25.7415 25.4861 25.6563 25.7141 25.4973C25.9422 25.3384 26.116 25.1133 26.2122 24.8525L28.1009 19.7266L33.2269 17.8379C33.4877 17.7417 33.7127 17.5679 33.8717 17.3398C34.0306 17.1118 34.1158 16.8405 34.1158 16.5625C34.1158 16.2845 34.0306 16.0132 33.8717 15.7852C33.7127 15.5571 33.4877 15.3833 33.2269 15.2871ZM32.8216 16.7383L27.4427 18.7207C27.363 18.75 27.2907 18.7963 27.2306 18.8563C27.1706 18.9163 27.1243 18.9887 27.095 19.0684L25.1126 24.4473C25.0993 24.4831 25.0753 24.5141 25.0439 24.5359C25.0125 24.5578 24.9751 24.5695 24.9368 24.5695C24.8985 24.5695 24.8612 24.5578 24.8298 24.5359C24.7983 24.5141 24.7744 24.4831 24.761 24.4473L22.7786 19.0684C22.7493 18.9887 22.703 18.9163 22.643 18.8563C22.583 18.7963 22.5106 18.75 22.431 18.7207L17.0521 16.7383C17.0162 16.725 16.9852 16.701 16.9634 16.6696C16.9415 16.6381 16.9298 16.6008 16.9298 16.5625C16.9298 16.5242 16.9415 16.4869 16.9634 16.4554C16.9852 16.424 17.0162 16.4 17.0521 16.3867L22.431 14.4043C22.5106 14.375 22.583 14.3287 22.643 14.2687C22.703 14.2087 22.7493 14.1363 22.7786 14.0566L24.761 8.67773C24.7744 8.64185 24.7983 8.6109 24.8298 8.58905C24.8612 8.5672 24.8985 8.55548 24.9368 8.55548C24.9751 8.55548 25.0125 8.5672 25.0439 8.58905C25.0753 8.6109 25.0993 8.64185 25.1126 8.67773L27.095 14.0566C27.1243 14.1363 27.1706 14.2087 27.2306 14.2687C27.2907 14.3287 27.363 14.375 27.4427 14.4043L32.8216 16.3867C32.8575 16.4 32.8884 16.424 32.9103 16.4554C32.9321 16.4869 32.9438 16.5242 32.9438 16.5625C32.9438 16.6008 32.9321 16.6381 32.9103 16.6696C32.8884 16.701 32.8575 16.725 32.8216 16.7383ZM28.2571 6.40625C28.2571 6.25085 28.3189 6.10181 28.4288 5.99193C28.5386 5.88205 28.6877 5.82031 28.8431 5.82031H30.6009V4.0625C30.6009 3.9071 30.6626 3.75806 30.7725 3.64818C30.8824 3.5383 31.0314 3.47656 31.1868 3.47656C31.3422 3.47656 31.4913 3.5383 31.6011 3.64818C31.711 3.75806 31.7728 3.9071 31.7728 4.0625V5.82031H33.5306C33.686 5.82031 33.835 5.88205 33.9449 5.99193C34.0548 6.10181 34.1165 6.25085 34.1165 6.40625C34.1165 6.56165 34.0548 6.71069 33.9449 6.82057C33.835 6.93045 33.686 6.99219 33.5306 6.99219H31.7728V8.75C31.7728 8.9054 31.711 9.05444 31.6011 9.16432C31.4913 9.2742 31.3422 9.33594 31.1868 9.33594C31.0314 9.33594 30.8824 9.2742 30.7725 9.16432C30.6626 9.05444 30.6009 8.9054 30.6009 8.75V6.99219H28.8431C28.6877 6.99219 28.5386 6.93045 28.4288 6.82057C28.3189 6.71069 28.2571 6.56165 28.2571 6.40625ZM38.0228 11.0938C38.0228 11.2492 37.961 11.3982 37.8511 11.5081C37.7413 11.618 37.5922 11.6797 37.4368 11.6797H36.4603V12.6562C36.4603 12.8117 36.3985 12.9607 36.2886 13.0706C36.1788 13.1805 36.0297 13.2422 35.8743 13.2422C35.7189 13.2422 35.5699 13.1805 35.46 13.0706C35.3501 12.9607 35.2884 12.8117 35.2884 12.6562V11.6797H34.3118C34.1564 11.6797 34.0074 11.618 33.8975 11.5081C33.7876 11.3982 33.7259 11.2492 33.7259 11.0938C33.7259 10.9383 33.7876 10.7893 33.8975 10.6794C34.0074 10.5695 34.1564 10.5078 34.3118 10.5078H35.2884V9.53125C35.2884 9.37585 35.3501 9.22681 35.46 9.11693C35.5699 9.00705 35.7189 8.94531 35.8743 8.94531C36.0297 8.94531 36.1788 9.00705 36.2886 9.11693C36.3985 9.22681 36.4603 9.37585 36.4603 9.53125V10.5078H37.4368C37.5922 10.5078 37.7413 10.5695 37.8511 10.6794C37.961 10.7893 38.0228 10.9383 38.0228 11.0938Z" fill="white"/>
<path d="M50.3551 22V20.8494L54.6761 16.1193C55.1832 15.5653 55.6009 15.0838 55.929 14.6747C56.2571 14.2614 56.5 13.8736 56.6577 13.5114C56.8196 13.1449 56.9006 12.7614 56.9006 12.3608C56.9006 11.9006 56.7898 11.5021 56.5682 11.1655C56.3509 10.8288 56.0526 10.5689 55.6733 10.3857C55.294 10.2024 54.8679 10.1108 54.3949 10.1108C53.892 10.1108 53.4531 10.2152 53.0781 10.424C52.7074 10.6286 52.4197 10.9162 52.2152 11.2869C52.0149 11.6577 51.9148 12.0923 51.9148 12.5909H50.4062C50.4062 11.8239 50.5831 11.1506 50.9368 10.571C51.2905 9.99148 51.772 9.53977 52.3814 9.21591C52.995 8.89204 53.6832 8.73011 54.446 8.73011C55.2131 8.73011 55.8928 8.89204 56.4851 9.21591C57.0774 9.53977 57.5419 9.97656 57.8786 10.5263C58.2152 11.076 58.3835 11.6875 58.3835 12.3608C58.3835 12.8423 58.2962 13.3132 58.1214 13.7734C57.951 14.2294 57.6527 14.7386 57.2266 15.3011C56.8047 15.8594 56.2188 16.5412 55.4688 17.3466L52.5284 20.4915V20.5938H58.6136V22H50.3551Z" fill="white"/>
</svg>
