<svg width="74" height="30" viewBox="0 0 74 30" fill="none" xmlns="http://www.w3.org/2000/svg">
<rect x="0.5" y="0.5" width="73" height="29" rx="14.5" stroke="white"/>
<path d="M22.875 13.9585L24.9585 16.0415L29.125 11.875" stroke="white" stroke-linecap="round" stroke-linejoin="round"/>
<path d="M26 24.375L26.9165 23.979C28.8381 23.1544 30.4975 21.8197 31.715 20.1195C32.9324 18.4193 33.6614 16.4184 33.823 14.3335L34.271 8.5835C34.2783 8.34537 34.2036 8.11196 34.0595 7.92229C33.9153 7.73262 33.7104 7.5982 33.479 7.5415L26 5.625L18.521 7.5C18.2897 7.55668 18.0848 7.69103 17.9407 7.8806C17.7965 8.07016 17.7218 8.30346 17.729 8.5415L18.177 14.2915C18.3385 16.3765 19.0675 18.3775 20.2849 20.0778C21.5023 21.7781 23.1618 23.1128 25.0835 23.9375L26 24.375Z" stroke="white" stroke-linecap="round" stroke-linejoin="round"/>
<path d="M54.2784 22.179C53.4347 22.179 52.6825 22.0341 52.022 21.7443C51.3658 21.4545 50.8438 21.0518 50.456 20.5362C50.0724 20.0163 49.8636 19.4134 49.8295 18.7273H51.4403C51.4744 19.1491 51.6193 19.5135 51.875 19.8203C52.1307 20.1229 52.4652 20.3572 52.8786 20.5234C53.2919 20.6896 53.75 20.7727 54.2528 20.7727C54.8153 20.7727 55.3139 20.6747 55.7486 20.4787C56.1832 20.2827 56.5241 20.0099 56.7713 19.6605C57.0185 19.3111 57.142 18.9062 57.142 18.446C57.142 17.9645 57.0227 17.5405 56.7841 17.174C56.5455 16.8033 56.196 16.5135 55.7358 16.3047C55.2756 16.0959 54.7131 15.9915 54.0483 15.9915H53V14.5852H54.0483C54.5682 14.5852 55.0241 14.4915 55.4162 14.304C55.8125 14.1165 56.1214 13.8523 56.343 13.5114C56.5689 13.1705 56.6818 12.7699 56.6818 12.3097C56.6818 11.8665 56.5838 11.4808 56.3878 11.1527C56.1918 10.8246 55.9148 10.5689 55.5568 10.3857C55.2031 10.2024 54.7855 10.1108 54.304 10.1108C53.8523 10.1108 53.4261 10.1939 53.0256 10.3601C52.6293 10.522 52.3054 10.7585 52.054 11.0696C51.8026 11.3764 51.6662 11.7472 51.6449 12.1818H50.1108C50.1364 11.4957 50.343 10.8949 50.7308 10.3793C51.1186 9.85937 51.6257 9.45454 52.2521 9.16477C52.8828 8.875 53.5753 8.73011 54.3295 8.73011C55.1392 8.73011 55.8338 8.89418 56.4134 9.2223C56.9929 9.54616 57.4382 9.97443 57.7493 10.5071C58.0604 11.0398 58.2159 11.6151 58.2159 12.233C58.2159 12.9702 58.022 13.5987 57.6342 14.1186C57.2507 14.6385 56.7287 14.9986 56.0682 15.1989V15.3011C56.8949 15.4375 57.5405 15.7891 58.005 16.3558C58.4695 16.9183 58.7017 17.6151 58.7017 18.446C58.7017 19.1577 58.5078 19.7969 58.12 20.3636C57.7365 20.9261 57.2124 21.3693 56.5476 21.6932C55.8828 22.017 55.1264 22.179 54.2784 22.179Z" fill="white"/>
</svg>
