<svg width="74" height="30" viewBox="0 0 74 30" fill="none" xmlns="http://www.w3.org/2000/svg">
<rect x="0.5" y="0.5" width="73" height="29" rx="14.5" stroke="white"/>
<path fill-rule="evenodd" clip-rule="evenodd" d="M27.5 23.3333C32.1026 23.3333 35.8333 19.6026 35.8333 15C35.8333 10.3974 32.1026 6.66667 27.5 6.66667C22.8974 6.66667 19.1667 10.3974 19.1667 15C19.1667 19.6026 22.8974 23.3333 27.5 23.3333ZM27.5 24.375C32.6776 24.375 36.875 20.1776 36.875 15C36.875 9.8224 32.6776 5.625 27.5 5.625C22.3224 5.625 18.125 9.8224 18.125 15C18.125 20.1776 22.3224 24.375 27.5 24.375Z" fill="white"/>
<path fill-rule="evenodd" clip-rule="evenodd" d="M23.695 17.0837C24.5049 19.0795 25.9971 20.2087 27.4997 20.2087C29.0028 20.2087 30.4945 19.0795 31.3044 17.0837H23.695ZM27.4997 21.2503C25.3966 21.2503 23.5736 19.6628 22.6778 17.3441L22.6518 17.2769C22.4195 16.6566 22.9163 16.042 23.5794 16.042H31.4205C32.0835 16.042 32.5809 16.6566 32.3476 17.2769L32.3221 17.3441C31.4257 19.6628 29.6028 21.2503 27.4997 21.2503Z" fill="white"/>
<path d="M26.0955 14.1887C26.1632 14.0022 26.1429 13.7746 26.0872 13.5673C26.0198 13.3287 25.9124 13.1033 25.7695 12.9006C25.4669 12.4689 24.9653 12.0725 24.2877 12.0434C23.5861 12.0142 23.0622 12.4595 22.7393 12.9319C22.5844 13.1594 22.4625 13.4077 22.3773 13.6694C22.3028 13.9017 22.2632 14.1392 22.2893 14.3293C22.2952 14.3726 22.3121 14.4138 22.3381 14.4489C22.3642 14.484 22.3987 14.512 22.4385 14.5303C22.4782 14.5486 22.522 14.5565 22.5656 14.5534C22.6093 14.5503 22.6514 14.5363 22.6882 14.5126C22.8966 14.3793 23.1148 14.1965 23.3169 14.0277C23.4085 13.9506 23.4976 13.8767 23.5799 13.8116C23.8726 13.5803 24.1007 13.4486 24.2893 13.4392C24.4689 13.4303 24.6762 13.5329 24.9377 13.7288C25.0314 13.7986 25.1221 13.8725 25.2158 13.9496L25.3174 14.0324C25.4445 14.135 25.5799 14.2402 25.7163 14.3225C25.7493 14.3424 25.7862 14.3547 25.8244 14.3586C25.8626 14.3625 25.9013 14.3579 25.9375 14.3451C25.9738 14.3323 26.0067 14.3116 26.034 14.2846C26.0614 14.2575 26.0824 14.2248 26.0955 14.1887ZM28.8617 14.1887C28.7939 14.0022 28.8148 13.7746 28.8705 13.5673C28.9288 13.3506 29.0367 13.1178 29.1882 12.9006C29.4903 12.4689 29.9924 12.0725 30.67 12.0434C31.371 12.0142 31.8955 12.4595 32.2184 12.9319C32.382 13.1715 32.5038 13.4309 32.5804 13.6694C32.6544 13.9017 32.6939 14.1392 32.6679 14.3293C32.6619 14.3726 32.6451 14.4136 32.619 14.4487C32.593 14.4837 32.5585 14.5117 32.5188 14.5299C32.4791 14.5482 32.4355 14.5562 32.3919 14.5532C32.3484 14.5501 32.3062 14.5362 32.2695 14.5126C32.0611 14.3793 31.8424 14.1965 31.6408 14.0277C31.5541 13.9545 31.4664 13.8825 31.3778 13.8116C31.0846 13.5803 30.857 13.4486 30.6679 13.4392C30.4887 13.4303 30.2809 13.5329 30.02 13.7288C29.9262 13.7986 29.8356 13.8725 29.7419 13.9496L29.6398 14.0324C29.5137 14.138 29.3805 14.2349 29.2413 14.3225C29.2084 14.3425 29.1715 14.3549 29.1332 14.3588C29.0949 14.3628 29.0562 14.3582 29.0198 14.3454C28.9835 14.3326 28.9505 14.3119 28.9232 14.2848C28.8958 14.2577 28.8748 14.2249 28.8617 14.1887Z" fill="white"/>
<path d="M55.9574 8.90909V22H54.3722V10.571H54.2955L51.0994 12.6932V11.0824L54.3722 8.90909H55.9574Z" fill="white"/>
</svg>
