<svg width="74" height="30" viewBox="0 0 74 30" fill="none" xmlns="http://www.w3.org/2000/svg">
<rect x="0.5" y="0.5" width="73" height="29" rx="14.5" stroke="white"/>
<path d="M21.0887 5.62493C20.5559 5.62493 20.0449 5.83658 19.6682 6.21333C19.2915 6.59008 19.0798 7.10106 19.0798 7.63386C19.0798 8.16666 19.2915 8.67764 19.6682 9.05439C20.0449 9.43113 20.5559 9.64279 21.0887 9.64279C21.6215 9.64279 22.1325 9.43113 22.5093 9.05439C22.886 8.67764 23.0977 8.16666 23.0977 7.63386C23.0977 7.10106 22.886 6.59008 22.5093 6.21333C22.1325 5.83658 21.6215 5.62493 21.0887 5.62493ZM17.7405 7.63386C17.7405 6.74586 18.0933 5.89423 18.7212 5.26631C19.3491 4.6384 20.2007 4.28564 21.0887 4.28564C21.9767 4.28564 22.8284 4.6384 23.4563 5.26631C24.0842 5.89423 24.4369 6.74586 24.4369 7.63386C24.4369 8.52186 24.0842 9.37349 23.4563 10.0014C22.8284 10.6293 21.9767 10.9821 21.0887 10.9821C20.2007 10.9821 19.3491 10.6293 18.7212 10.0014C18.0933 9.37349 17.7405 8.52186 17.7405 7.63386ZM15.2852 14.091C15.2852 13.1133 16.0771 12.3214 17.0548 12.3214H22.0548C21.885 12.7488 21.7867 13.2013 21.7637 13.6606H17.0548C16.9982 13.6604 16.9421 13.6714 16.8898 13.6929C16.8375 13.7145 16.79 13.7462 16.75 13.7862C16.71 13.8262 16.6783 13.8737 16.6567 13.926C16.6352 13.9784 16.6242 14.0344 16.6244 14.091V14.4419C16.6244 14.5955 16.6262 15.5249 17.1664 16.4035C17.6307 17.1571 18.5539 17.974 20.5173 18.1062C20.0635 18.4015 19.7099 18.8273 19.503 19.3276C17.7128 18.9964 16.6396 18.1026 16.0262 17.1044C15.2852 15.9017 15.2852 14.6589 15.2852 14.4446V14.091ZM29.9432 12.3214C30.1093 12.7392 30.211 13.1901 30.2343 13.6606H34.9441C35.1816 13.6606 35.3744 13.8535 35.3744 14.091V14.4419C35.3744 14.5955 35.3727 15.5249 34.8316 16.4035C34.3682 17.1571 33.4459 17.974 31.4816 18.1062C31.9325 18.399 32.2887 18.8249 32.4959 19.3276C34.286 18.9964 35.3593 18.1026 35.9727 17.1044C36.7137 15.9008 36.7137 14.658 36.7137 14.4437V14.091C36.714 13.8585 36.6683 13.6283 36.5795 13.4135C36.4907 13.1987 36.3603 13.0035 36.1959 12.8392C36.0316 12.6748 35.8364 12.5444 35.6216 12.4556C35.4068 12.3667 35.1765 12.3211 34.9441 12.3214H29.9432ZM30.9102 5.62493C30.3774 5.62493 29.8664 5.83658 29.4896 6.21333C29.1129 6.59008 28.9012 7.10106 28.9012 7.63386C28.9012 8.16666 29.1129 8.67764 29.4896 9.05439C29.8664 9.43113 30.3774 9.64279 30.9102 9.64279C31.443 9.64279 31.9539 9.43113 32.3307 9.05439C32.7074 8.67764 32.9191 8.16666 32.9191 7.63386C32.9191 7.10106 32.7074 6.59008 32.3307 6.21333C31.9539 5.83658 31.443 5.62493 30.9102 5.62493ZM27.5619 7.63386C27.5619 6.74586 27.9147 5.89423 28.5426 5.26631C29.1705 4.6384 30.0222 4.28564 30.9102 4.28564C31.7982 4.28564 32.6498 4.6384 33.2777 5.26631C33.9056 5.89423 34.2584 6.74586 34.2584 7.63386C34.2584 8.52186 33.9056 9.37349 33.2777 10.0014C32.6498 10.6293 31.7982 10.9821 30.9102 10.9821C30.0222 10.9821 29.1705 10.6293 28.5426 10.0014C27.9147 9.37349 27.5619 8.52186 27.5619 7.63386ZM20.1959 20.341C20.1959 19.3633 20.9878 18.5714 21.9655 18.5714H30.0334C31.011 18.5714 31.803 19.3633 31.803 20.341V20.6937C31.803 20.908 31.803 22.1508 31.0619 23.3544C30.2852 24.6187 28.7727 25.7142 25.9994 25.7142C23.2262 25.7142 21.7137 24.6178 20.9369 23.3553C20.1959 22.1508 20.1959 20.9089 20.1959 20.6937V20.341ZM21.9655 19.9106C21.9089 19.9104 21.8529 19.9214 21.8005 19.9429C21.7482 19.9645 21.7007 19.9962 21.6607 20.0362C21.6207 20.0762 21.589 20.1237 21.5674 20.176C21.5459 20.2284 21.5349 20.2844 21.5352 20.341V20.6919C21.5352 20.8455 21.5369 21.7749 22.0771 22.6535C22.5843 23.4767 23.6387 24.3749 25.9994 24.3749C28.3602 24.3749 29.4146 23.4767 29.9209 22.6535C30.4619 21.7758 30.4637 20.8455 30.4637 20.6919V20.341C30.464 20.2844 30.453 20.2284 30.4314 20.176C30.4099 20.1237 30.3782 20.0762 30.3382 20.0362C30.2982 19.9962 30.2507 19.9645 30.1983 19.9429C30.146 19.9214 30.09 19.9104 30.0334 19.9106H21.9655ZM23.9905 13.8839C23.9905 13.62 24.0425 13.3588 24.1434 13.1151C24.2444 12.8713 24.3924 12.6499 24.5789 12.4633C24.7655 12.2768 24.9869 12.1288 25.2307 12.0279C25.4744 11.9269 25.7356 11.8749 25.9994 11.8749C26.2633 11.8749 26.5245 11.9269 26.7682 12.0279C27.012 12.1288 27.2334 12.2768 27.42 12.4633C27.6065 12.6499 27.7545 12.8713 27.8555 13.1151C27.9564 13.3588 28.0084 13.62 28.0084 13.8839C28.0084 14.4167 27.7967 14.9276 27.42 15.3044C27.0432 15.6811 26.5322 15.8928 25.9994 15.8928C25.4666 15.8928 24.9557 15.6811 24.5789 15.3044C24.2022 14.9276 23.9905 14.4167 23.9905 13.8839ZM25.9994 10.5356C25.1114 10.5356 24.2598 10.8884 23.6319 11.5163C23.004 12.1442 22.6512 12.9959 22.6512 13.8839C22.6512 14.7719 23.004 15.6235 23.6319 16.2514C24.2598 16.8793 25.1114 17.2321 25.9994 17.2321C26.8874 17.2321 27.7391 16.8793 28.367 16.2514C28.9949 15.6235 29.3477 14.7719 29.3477 13.8839C29.3477 12.9959 28.9949 12.1442 28.367 11.5163C27.7391 10.8884 26.8874 10.5356 25.9994 10.5356Z" fill="white"/>
<path d="M49.5483 19.3153V18.0114L55.3011 8.90909H56.2472V10.929H55.608L51.2614 17.8068V17.9091H59.0085V19.3153H49.5483ZM55.7102 22V18.919V18.3118V8.90909H57.2188V22H55.7102Z" fill="white"/>
</svg>
