<svg width="185" height="50" viewBox="0 0 185 50" fill="none" xmlns="http://www.w3.org/2000/svg">
<g clip-path="url(#clip0_4694_12705)">
<path d="M39 7H164C173.941 7 182 15.0589 182 25C182 34.9411 173.941 43 164 43H39V7Z" fill="white"/>
<path d="M70.43 16.36C69.81 16.5 69.35 16.72 69.05 17.02C68.75 17.3 68.55 17.74 68.45 18.34C68.35 18.94 68.3 19.84 68.3 21.04V28.27C68.3 31.15 67.89 33.27 67.07 34.63C66.53 35.53 65.73 36.22 64.67 36.7C63.63 37.18 62.28 37.42 60.62 37.42C58.2 37.42 56.32 36.94 54.98 35.98C54 35.28 53.34 34.34 53 33.16C52.68 31.98 52.52 30.38 52.52 28.36V18.94C52.52 18.18 52.47 17.63 52.37 17.29C52.27 16.95 52.07 16.72 51.77 16.6C51.49 16.48 51.03 16.4 50.39 16.36V15.76C51.53 15.82 53.29 15.85 55.67 15.85C58.03 15.85 59.82 15.82 61.04 15.76V16.36C60.32 16.4 59.79 16.48 59.45 16.6C59.13 16.72 58.91 16.95 58.79 17.29C58.67 17.63 58.61 18.18 58.61 18.94V31.18C58.61 33.1 58.91 34.45 59.51 35.23C60.11 35.99 61.06 36.37 62.36 36.37C64.26 36.37 65.61 35.7 66.41 34.36C67.21 33 67.61 31.08 67.61 28.6V21.64C67.61 20.16 67.55 19.1 67.43 18.46C67.31 17.8 67.04 17.32 66.62 17.02C66.22 16.72 65.54 16.5 64.58 16.36V15.76C65.4 15.82 66.52 15.85 67.94 15.85C69 15.85 69.83 15.82 70.43 15.76V16.36ZM78.5758 21.45C79.9758 21.45 81.2424 21.7583 82.3758 22.375C82.5591 22.475 82.7174 22.5583 82.8508 22.625C83.0008 22.6917 83.1258 22.725 83.2258 22.725C83.3758 22.725 83.4924 22.6417 83.5758 22.475C83.6591 22.2917 83.7258 22.0083 83.7758 21.625H84.3508C84.2674 22.7083 84.2258 24.575 84.2258 27.225H83.6508C83.4174 25.525 82.8674 24.2417 82.0008 23.375C81.1508 22.4917 80.1008 22.05 78.8508 22.05C78.0508 22.05 77.4174 22.2 76.9508 22.5C76.4841 22.8 76.2508 23.1917 76.2508 23.675C76.2508 24.1083 76.4091 24.525 76.7258 24.925C77.0424 25.3083 77.4508 25.675 77.9508 26.025C78.4508 26.375 79.2424 26.8917 80.3258 27.575C81.3258 28.1583 82.1424 28.6917 82.7758 29.175C83.4091 29.6417 83.9424 30.2083 84.3758 30.875C84.8091 31.525 85.0258 32.2667 85.0258 33.1C85.0258 34.4667 84.4008 35.5167 83.1508 36.25C81.9008 36.9833 80.2341 37.35 78.1508 37.35C77.3508 37.35 76.6591 37.2583 76.0758 37.075C75.4924 36.9083 74.8008 36.6667 74.0008 36.35C73.5508 36.1667 73.2591 36.075 73.1258 36.075C72.9758 36.075 72.8591 36.1667 72.7758 36.35C72.6924 36.5167 72.6258 36.7917 72.5758 37.175H72.0008C72.0674 36.175 72.1008 34.0083 72.1008 30.675H72.6758C72.8091 32.6083 73.3341 34.1 74.2508 35.15C75.1674 36.2 76.4091 36.725 77.9758 36.725C78.6758 36.725 79.2758 36.5667 79.7758 36.25C80.2924 35.9333 80.5508 35.45 80.5508 34.8C80.5508 34.2 80.3258 33.675 79.8758 33.225C79.4258 32.775 78.6258 32.1917 77.4758 31.475C75.7424 30.4417 74.4174 29.4833 73.5008 28.6C72.5841 27.7 72.1258 26.7 72.1258 25.6C72.1258 24.25 72.7174 23.225 73.9008 22.525C75.0841 21.8083 76.6424 21.45 78.5758 21.45ZM101.887 21.8C101.77 23.1833 101.712 24.4167 101.712 25.5C101.712 26.5 101.737 27.2667 101.787 27.8H101.212C100.745 25.8333 100.17 24.4417 99.4869 23.625C98.8202 22.7917 97.9452 22.375 96.8619 22.375H96.6369V34.1C96.6369 34.8 96.7036 35.3083 96.8369 35.625C96.9702 35.9417 97.2036 36.1583 97.5369 36.275C97.8702 36.3917 98.4119 36.4667 99.1619 36.5V37C98.2286 36.95 96.5452 36.925 94.1119 36.925C91.6952 36.925 90.0869 36.95 89.2869 37V36.5C90.0369 36.4667 90.5786 36.3917 90.9119 36.275C91.2452 36.1583 91.4786 35.9417 91.6119 35.625C91.7452 35.3083 91.8119 34.8 91.8119 34.1V22.375H91.5869C90.5036 22.375 89.6202 22.7917 88.9369 23.625C88.2702 24.4417 87.7036 25.8333 87.2369 27.8H86.6619C86.7119 27.2667 86.7369 26.5 86.7369 25.5C86.7369 24.4167 86.6786 23.1833 86.5619 21.8C88.0452 21.85 90.5619 21.875 94.1119 21.875C97.7619 21.875 100.354 21.85 101.887 21.8ZM120.34 35.95C119.874 36.4167 119.357 36.7667 118.79 37C118.24 37.2333 117.532 37.35 116.665 37.35C115.582 37.35 114.749 37.1667 114.165 36.8C113.582 36.4167 113.207 35.8917 113.04 35.225L112.34 32.4C112.19 31.4833 111.957 30.875 111.64 30.575C111.324 30.2583 110.857 30.1 110.24 30.1H109.815V34.35C109.815 34.9833 109.857 35.4417 109.94 35.725C110.04 36.0083 110.207 36.2 110.44 36.3C110.674 36.4 111.057 36.4667 111.59 36.5V37C110.524 36.95 108.965 36.925 106.915 36.925C105.249 36.925 104.015 36.95 103.215 37V36.5C103.749 36.4667 104.132 36.4 104.365 36.3C104.615 36.2 104.782 36.0083 104.865 35.725C104.949 35.4417 104.99 34.9833 104.99 34.35V24.45C104.99 23.8167 104.94 23.3583 104.84 23.075C104.757 22.7917 104.599 22.6 104.365 22.5C104.132 22.4 103.749 22.3333 103.215 22.3V21.8C104.015 21.85 105.199 21.875 106.765 21.875L109.815 21.85C110.165 21.8333 110.574 21.825 111.04 21.825C115.89 21.825 118.315 23.1083 118.315 25.675C118.315 26.7417 117.832 27.6667 116.865 28.45C115.915 29.2333 114.307 29.725 112.04 29.925C112.107 29.925 112.19 29.9333 112.29 29.95C112.407 29.95 112.54 29.9667 112.69 30C114.09 30.1333 115.19 30.4 115.99 30.8C116.807 31.1833 117.324 31.8083 117.54 32.675L118.065 34.875C118.165 35.2917 118.299 35.5833 118.465 35.75C118.632 35.9 118.849 35.975 119.115 35.975C119.415 35.975 119.707 35.8583 119.99 35.625L120.34 35.95ZM110.915 22.3C110.599 22.3 110.365 22.3583 110.215 22.475C110.065 22.5917 109.957 22.8 109.89 23.1C109.84 23.4 109.815 23.85 109.815 24.45V29.6H110.49C111.574 29.6 112.315 29.2833 112.715 28.65C113.115 28 113.315 27.1 113.315 25.95C113.315 24.7333 113.132 23.825 112.765 23.225C112.399 22.6083 111.782 22.3 110.915 22.3ZM134.124 33.55C134.124 34.5667 134.182 35.7167 134.299 37C133.215 36.95 131.39 36.925 128.824 36.925C125.157 36.925 122.407 36.95 120.574 37V36.5C121.107 36.4667 121.49 36.4 121.724 36.3C121.974 36.2 122.14 36.0083 122.224 35.725C122.307 35.4417 122.349 34.9833 122.349 34.35V24.45C122.349 23.8167 122.299 23.3583 122.199 23.075C122.115 22.7917 121.957 22.6 121.724 22.5C121.49 22.4 121.107 22.3333 120.574 22.3V21.8C122.407 21.85 125.157 21.875 128.824 21.875C131.157 21.875 132.815 21.85 133.799 21.8C133.682 22.9833 133.624 24.05 133.624 25C133.624 25.65 133.649 26.1667 133.699 26.55H133.124C132.79 25.0667 132.257 24 131.524 23.35C130.807 22.7 129.89 22.375 128.774 22.375H128.449C127.982 22.375 127.649 22.4583 127.449 22.625C127.265 22.7917 127.174 23.15 127.174 23.7V29.1H127.749C128.549 29.1 129.182 28.8167 129.649 28.25C130.132 27.6667 130.44 27.0167 130.574 26.3H131.149C131.099 26.8667 131.074 27.5333 131.074 28.3V29.35C131.074 30.1667 131.124 31.1833 131.224 32.4H130.649C130.532 31.6 130.224 30.9333 129.724 30.4C129.224 29.8667 128.565 29.6 127.749 29.6H127.174V35.1C127.174 35.65 127.265 36.0083 127.449 36.175C127.649 36.3417 127.982 36.425 128.449 36.425H129.024C130.19 36.425 131.157 36.0667 131.924 35.35C132.707 34.6167 133.274 33.4167 133.624 31.75H134.199C134.149 32.2167 134.124 32.8167 134.124 33.55ZM149.977 34.9C150.477 35.9333 150.969 36.4667 151.452 36.5V37C150.602 36.95 149.377 36.925 147.777 36.925C145.76 36.925 144.277 36.95 143.327 37V36.5C143.844 36.4667 144.227 36.3833 144.477 36.25C144.727 36.1 144.852 35.8583 144.852 35.525C144.852 35.225 144.744 34.85 144.527 34.4L143.302 31.55H138.627C138.06 32.85 137.777 33.8917 137.777 34.675C137.777 35.3417 137.977 35.8083 138.377 36.075C138.777 36.325 139.352 36.4667 140.102 36.5V37C138.852 36.95 137.76 36.925 136.827 36.925C136.044 36.925 135.402 36.95 134.902 37V36.5C135.302 36.4333 135.669 36.1833 136.002 35.75C136.352 35.3167 136.752 34.5917 137.202 33.575L142.327 21.8C142.694 21.8333 142.969 21.85 143.152 21.85C143.335 21.85 143.61 21.8333 143.977 21.8L149.977 34.9ZM143.077 31.05L140.952 26.15L138.827 31.05H143.077ZM173.147 22.3C172.547 22.3333 172.105 22.4 171.822 22.5C171.555 22.6 171.372 22.7917 171.272 23.075C171.172 23.3583 171.122 23.8167 171.122 24.45V34.35C171.122 34.9833 171.172 35.4417 171.272 35.725C171.372 36.0083 171.555 36.2 171.822 36.3C172.105 36.4 172.547 36.4667 173.147 36.5V37C172.18 36.95 170.789 36.925 168.972 36.925C166.722 36.925 165.072 36.95 164.022 37V36.5C164.622 36.4667 165.055 36.4 165.322 36.3C165.605 36.2 165.797 36.0083 165.897 35.725C165.997 35.4417 166.047 34.9833 166.047 34.35V23.375L160.522 37.125H160.122L154.322 23.4V33.35C154.322 34.15 154.389 34.75 154.522 35.15C154.672 35.55 154.939 35.85 155.322 36.05C155.705 36.2333 156.297 36.3833 157.097 36.5V37C156.28 36.95 155.264 36.925 154.047 36.925C153.164 36.925 152.472 36.95 151.972 37V36.5C152.505 36.3833 152.889 36.2333 153.122 36.05C153.372 35.85 153.539 35.5583 153.622 35.175C153.705 34.775 153.747 34.1667 153.747 33.35V24.45C153.747 23.8167 153.697 23.3583 153.597 23.075C153.497 22.7917 153.305 22.6 153.022 22.5C152.755 22.4 152.322 22.3333 151.722 22.3V21.8C152.822 21.85 154.514 21.875 156.797 21.875C157.714 21.875 158.48 21.85 159.097 21.8L162.647 30.3L166.047 21.875H168.972C170.789 21.875 172.18 21.85 173.147 21.8V22.3Z" fill="url(#paint0_linear_4694_12705)"/>
</g>
<path d="M39 5.75H37.75V7V43V44.25H39H164C174.631 44.25 183.25 35.6315 183.25 25C183.25 14.3685 174.631 5.75 164 5.75H39Z" stroke="url(#paint1_linear_4694_12705)" stroke-width="2.5"/>
<rect x="1.5" y="1.5" width="47" height="47" rx="23.5" fill="white"/>
<rect x="1.5" y="1.5" width="47" height="47" rx="23.5" stroke="url(#paint2_linear_4694_12705)" stroke-width="3"/>
<path fill-rule="evenodd" clip-rule="evenodd" d="M25.5 41.375C27.7161 41.375 29.9104 40.9385 31.9578 40.0905C34.0052 39.2424 35.8654 37.9994 37.4324 36.4324C38.9994 34.8654 40.2424 33.0052 41.0905 30.9578C41.9385 28.9104 42.375 26.7161 42.375 24.5C42.375 22.2839 41.9385 20.0896 41.0905 18.0422C40.2424 15.9948 38.9994 14.1346 37.4324 12.5676C35.8654 11.0006 34.0052 9.75758 31.9578 8.90953C29.9104 8.06148 27.7161 7.625 25.5 7.625C21.0245 7.625 16.7322 9.4029 13.5676 12.5676C10.4029 15.7322 8.625 20.0245 8.625 24.5C8.625 28.9755 10.4029 33.2677 13.5676 36.4324C16.7322 39.5971 21.0245 41.375 25.5 41.375ZM23.2181 16.9812L33.8006 22.8613C34.0928 23.0237 34.3362 23.2613 34.5057 23.5494C34.6751 23.8375 34.7645 24.1657 34.7645 24.5C34.7645 24.8343 34.6751 25.1625 34.5057 25.4506C34.3362 25.7387 34.0928 25.9763 33.8006 26.1388L23.2181 32.0188C22.8755 32.2092 22.489 32.3068 22.097 32.302C21.705 32.2971 21.3211 32.1899 20.9833 31.9909C20.6454 31.792 20.3655 31.5082 20.1711 31.1678C19.9767 30.8274 19.8746 30.442 19.875 30.05V18.95C19.8746 18.558 19.9767 18.1726 20.1711 17.8322C20.3655 17.4918 20.6454 17.208 20.9833 17.0091C21.3211 16.8101 21.705 16.7029 22.097 16.698C22.489 16.6932 22.8755 16.7908 23.2181 16.9812Z" fill="url(#paint3_linear_4694_12705)"/>
<defs>
<linearGradient id="paint0_linear_4694_12705" x1="50" y1="-74.4445" x2="207.004" y2="-12.9456" gradientUnits="userSpaceOnUse">
<stop offset="0.000363371" stop-color="#FF0606"/>
<stop offset="1"/>
</linearGradient>
<linearGradient id="paint1_linear_4694_12705" x1="39" y1="-64.5001" x2="205.817" y2="19.2277" gradientUnits="userSpaceOnUse">
<stop offset="0.000363371" stop-color="#FF0606"/>
<stop offset="1"/>
</linearGradient>
<linearGradient id="paint2_linear_4694_12705" x1="1.1831e-05" y1="-99.3056" x2="71.8739" y2="-90.224" gradientUnits="userSpaceOnUse">
<stop offset="0.000363371" stop-color="#FF0606"/>
<stop offset="1"/>
</linearGradient>
<linearGradient id="paint3_linear_4694_12705" x1="8.62501" y1="-59.4063" x2="57.1399" y2="-53.2762" gradientUnits="userSpaceOnUse">
<stop offset="0.000363371" stop-color="#FF0606"/>
<stop offset="1"/>
</linearGradient>
<clipPath id="clip0_4694_12705">
<path d="M39 7H164C173.941 7 182 15.0589 182 25C182 34.9411 173.941 43 164 43H39V7Z" fill="white"/>
</clipPath>
</defs>
</svg>
