<svg width="18" height="18" viewBox="0 0 18 18" fill="none" xmlns="http://www.w3.org/2000/svg">
<g clip-path="url(#clip0_4836_7852)">
<path d="M17.582 0L9.85938 6.09592L11.2955 2.50342L17.582 0Z" fill="#E17726"/>
<path d="M0.436695 0.00683594L6.70645 2.50351L8.07006 6.14311L0.436695 0.00683594ZM14.4742 12.964L17.8875 13.0333L16.6946 17.3564L12.5296 16.1331L14.4742 12.964ZM3.5264 12.964L5.46376 16.1331L1.30579 17.3565L0.120117 13.0333L3.5264 12.964Z" fill="#E27625"/>
<path d="M7.88437 5.21671L8.02385 10.0229L3.84985 9.82036L5.03714 7.90951L5.05219 7.89114L7.88437 5.21671ZM10.0724 5.16309L12.9479 7.89129L12.9628 7.90959L14.15 9.82044L9.97696 10.0229L10.0724 5.16309ZM5.58572 12.9786L7.86483 14.873L5.21733 16.2366L5.58572 12.9786ZM12.4147 12.9783L12.7755 16.2367L10.1354 14.8729L12.4147 12.9783Z" fill="#E27625"/>
<path d="M10.1937 14.6943L12.8728 16.0782L10.3807 17.3417L10.4066 16.5066L10.1937 14.6943ZM7.80572 14.6949L7.60121 16.493L7.61801 17.3407L5.12012 16.0782L7.80572 14.6949Z" fill="#D5BFB2"/>
<path d="M7.03206 10.6504L7.73214 12.22L5.34863 11.4751L7.03206 10.6504ZM10.968 10.6505L12.6594 11.4751L10.2681 12.2198L10.968 10.6505Z" fill="#233447"/>
<path d="M5.76792 12.9621L5.38266 16.3401L3.31763 13.036L5.76792 12.9621ZM12.2323 12.9622L14.6827 13.036L12.6099 16.3403L12.2323 12.9622ZM14.2104 9.62891L12.4272 11.5677L11.0522 10.8975L10.394 12.3738L9.96245 9.83508L14.2104 9.62891ZM3.7888 9.62891L8.03761 9.83508L7.60601 12.3738L6.94762 10.8977L5.58 11.5678L3.7888 9.62891Z" fill="#CC6228"/>
<path d="M3.66895 9.23144L5.68652 11.4155L5.7564 13.5717L3.66895 9.23144ZM14.3338 9.22754L12.2426 13.5755L12.3213 11.4155L14.3338 9.22754ZM7.93926 9.36449L8.02046 9.90974L8.22111 11.2681L8.0921 15.4399L7.48222 12.0886L7.48201 12.0539L7.93926 9.36449ZM10.0604 9.35691L10.5188 12.0539L10.5186 12.0886L9.9072 15.4483L9.88302 14.608L9.78762 11.2433L10.0604 9.35691Z" fill="#E27525"/>
<path d="M12.5 11.3281L12.4318 13.2015L10.3034 14.9705L9.87312 14.6462L10.3554 11.9961L12.5 11.3281ZM5.50684 11.3281L7.644 11.9961L8.12628 14.6462L7.69602 14.9705L5.56758 13.2013L5.50684 11.3281Z" fill="#F5841F"/>
<path d="M4.71265 15.6641L7.43565 17.0405L7.42412 16.4527L7.65197 16.2393H10.347L10.5831 16.4519L10.5656 17.0393L13.2714 15.6675L11.9548 16.8282L10.3627 17.9947H7.63011L6.03914 16.8234L4.71265 15.6641Z" fill="#C0AC9D"/>
<path d="M9.99904 14.5107L10.384 14.8009L10.6096 16.7212L10.2831 16.4271H7.71874L7.39844 16.7271L7.61666 14.8011L8.00178 14.5107H9.99904Z" fill="#161616"/>
<path d="M17.0717 0.168945L17.9987 3.13572L17.4198 6.1355L17.832 6.47472L17.2742 6.92877L17.6935 7.27422L17.1383 7.81355L17.4791 8.07687L16.5746 9.20382L12.8647 8.05145L12.8325 8.03307L10.1591 5.62722L17.0717 0.168945ZM0.928001 0.168945L7.84068 5.62722L5.16717 8.03307L5.13505 8.05145L1.42512 9.20382L0.520591 8.07687L0.861142 7.81377L0.306306 7.27422L0.724753 6.92915L0.158527 6.47382L0.586325 6.13437L0.000976562 3.13587L0.928001 0.168945Z" fill="#763E1A"/>
<path d="M12.6838 7.79925L16.6147 9.02017L17.8917 13.2191H14.5225L12.2011 13.2503L13.8893 9.73972L12.6838 7.79925ZM5.31707 7.79925L4.11129 9.73972L5.79977 13.2503L3.4794 13.2191H0.116211L1.38611 9.02025L5.31707 7.79925ZM11.488 2.4834L10.3886 5.65132L10.1552 9.93082L10.0659 11.2722L10.0588 14.6988H7.94193L7.93504 11.2786L7.84547 9.9297L7.61206 5.65132L6.51272 2.4834H11.488Z" fill="#F5841F"/>
</g>
<defs>
<clipPath id="clip0_4836_7852">
<rect width="18" height="18" fill="white"/>
</clipPath>
</defs>
</svg>
