<svg width="45" height="45" viewBox="0 0 45 45" fill="none" xmlns="http://www.w3.org/2000/svg">
<g clip-path="url(#clip0_4670_167)">
<path d="M43.9541 0L24.6475 15.2398L28.2377 6.25856L43.9541 0Z" fill="#E17726"/>
<path d="M1.09125 0.0180664L16.7656 6.25975L20.1747 15.3588L1.09125 0.0180664ZM36.1849 32.4109L44.7182 32.5842L41.7359 43.3921L31.3234 40.3338L36.1849 32.4109ZM8.81552 32.4109L13.6589 40.3338L3.26398 43.3923L0.299805 32.5842L8.81552 32.4109Z" fill="#E27625"/>
<path d="M19.7113 13.0413L20.06 25.0569L9.625 24.5504L12.5932 19.7733L12.6308 19.7274L19.7113 13.0413ZM25.1815 12.9072L32.37 19.7277L32.4073 19.7735L35.3755 24.5506L24.9428 25.0569L25.1815 12.9072ZM13.9647 32.446L19.6624 37.1821L13.0437 40.591L13.9647 32.446ZM31.0372 32.4453L31.939 40.5912L25.3388 37.1817L31.0372 32.4453Z" fill="#E27625"/>
<path d="M25.4838 36.7355L32.1815 40.1952L25.9513 43.3538L26.016 41.2662L25.4838 36.7355ZM19.5138 36.737L19.0025 41.2321L19.0445 43.3514L12.7998 40.1952L19.5138 36.737Z" fill="#D5BFB2"/>
<path d="M17.5797 26.625L19.3299 30.549L13.3711 28.6868L17.5797 26.625ZM27.4195 26.6254L31.648 28.6868L25.6697 30.5484L27.4195 26.6254Z" fill="#233447"/>
<path d="M14.4197 32.4056L13.4565 40.8506L8.29395 32.5903L14.4197 32.4056ZM30.5807 32.4058L36.7067 32.5903L31.5247 40.8509L30.5807 32.4058ZM35.5259 24.0725L31.0678 28.9196L27.6305 27.2439L25.9848 30.9346L24.906 24.5879L35.5259 24.0725ZM9.47188 24.0725L20.0939 24.5879L19.0149 30.9346L17.3689 27.2444L13.9499 28.9198L9.47188 24.0725Z" fill="#CC6228"/>
<path d="M9.17188 23.0781L14.2158 28.5383L14.3905 33.9287L9.17188 23.0781ZM35.834 23.0684L30.6059 33.9383L30.8027 28.5383L35.834 23.0684ZM19.8477 23.4107L20.0507 24.7739L20.5523 28.1697L20.2298 38.5994L18.7051 30.2209L18.7045 30.1343L19.8477 23.4107ZM25.1505 23.3918L26.2966 30.1343L26.2961 30.2209L24.7675 38.6204L24.7071 36.5194L24.4686 28.1078L25.1505 23.3918Z" fill="#E27525"/>
<path d="M31.2505 28.3212L31.0799 33.0045L25.7589 37.4271L24.6833 36.6164L25.889 29.991L31.2505 28.3212ZM13.7676 28.3212L19.1105 29.991L20.3162 36.6164L19.2405 37.4271L13.9194 33.0042L13.7676 28.3212Z" fill="#F5841F"/>
<path d="M11.7822 39.1609L18.5897 42.6019L18.5609 41.1325L19.1305 40.599H25.8681L26.4583 41.1306L26.4147 42.5989L33.1792 39.1695L29.8875 42.0713L25.9075 44.9875H19.0759L15.0985 42.0593L11.7822 39.1609Z" fill="#C0AC9D"/>
<path d="M24.9966 36.2773L25.9591 37.0028L26.5231 41.8035L25.7069 41.0683H19.2959L18.4951 41.8183L19.0407 37.0032L20.0035 36.2773H24.9966Z" fill="#161616"/>
<path d="M42.6797 0.421875L44.9973 7.83881L43.5499 15.3383L44.5806 16.1863L43.1859 17.3214L44.2342 18.1851L42.8462 19.5334L43.6983 20.1917L41.4369 23.0091L32.1621 20.1281L32.0818 20.0822L25.3982 14.0676L42.6797 0.421875ZM2.32049 0.421875L19.6022 14.0676L12.9184 20.0822L12.8381 20.1281L3.56329 23.0091L1.30197 20.1917L2.15334 19.5339L0.766252 18.1851L1.81237 17.3224L0.396806 16.1841L1.4663 15.3354L0.00292969 7.83919L2.32049 0.421875Z" fill="#763E1A"/>
<path d="M31.708 19.4981L41.5352 22.5504L44.7279 33.0478H36.3048L30.5012 33.1258L34.7219 24.3493L31.708 19.4981ZM13.2912 19.4981L10.2768 24.3493L14.498 33.1258L8.69703 33.0478H0.289062L3.4638 22.5506L13.2912 19.4981ZM28.7187 6.2085L25.97 14.1283L25.3866 24.8271L25.1634 28.1805L25.1456 36.747H19.8534L19.8361 28.1966L19.6122 24.8242L19.0287 14.1283L16.2803 6.2085H28.7187Z" fill="#F5841F"/>
</g>
<defs>
<clipPath id="clip0_4670_167">
<rect width="45" height="45" fill="white"/>
</clipPath>
</defs>
</svg>
