<svg width="39" height="31" viewBox="0 0 39 31" fill="none" xmlns="http://www.w3.org/2000/svg">
<path d="M5.18812 30.5C9.97312 30.5 13.5694 26.5025 15.7144 23.3431C15.4584 24.0032 15.3213 24.7034 15.3094 25.4112C15.3094 27.2562 16.4119 28.5706 18.5869 28.5706C21.5737 28.5706 24.7631 26.0544 26.4169 23.3431C26.3054 23.6957 26.2466 24.0628 26.2425 24.4325C26.2425 25.7187 26.9962 26.5306 28.5337 26.5306C33.3769 26.5306 38.25 18.2806 38.25 11.0694C38.25 5.44812 35.2912 0.5 27.8662 0.5C14.8162 0.5 0.75 15.8225 0.75 25.7188C0.75 29.6056 2.925 30.5 5.18812 30.5ZM23.3719 10.4525C23.3719 9.05562 24.1837 8.07688 25.3725 8.07688C26.5331 8.07688 27.345 9.05562 27.345 10.4525C27.345 11.8512 26.5331 12.8581 25.3725 12.8581C24.1837 12.8581 23.3719 11.8512 23.3719 10.4525ZM29.5781 10.4525C29.5781 9.05562 30.39 8.07688 31.5787 8.07688C32.7412 8.07688 33.5512 9.05562 33.5512 10.4525C33.5512 11.8512 32.7394 12.8581 31.5787 12.8581C30.39 12.8581 29.5781 11.8512 29.5781 10.4525Z" fill="#AB9FF2"/>
</svg>
